# xmcd
#
# Track frame offsets:
#	150
#	24900
#	48067
#	74536
#	101792
#	133536
#	160758
#	190208
#	215870
#	243456
#	272115
#
# Disc length: 4034 seconds
#
# Revision: 1
# Processed by: cddbd v1.5.1PL0 Copyright (c) Steve Scherf et al.
# Submitted via: audiograbber 1.83.01
#
DISCID=9e0fc00b
DTITLE=Bill Heid - Wet Streets
DYEAR=1999
DGENRE=Blues
TTITLE0=400,000 Miles
TTITLE1=Birds Flapping Their Wings
TTITLE2=This Little Puppy
TTITLE3=Covert Ops
TTITLE4=Bar B Que Sauce
TTITLE5=Fall Tones
TTITLE6=Tsun Hun
TTITLE7=Big John
TTITLE8=Little George Von
TTITLE9=Rubber Marshmallows
TTITLE10=Wet Streets
EXTD=
EXTT0=
EXTT1=
EXTT2=
EXTT3=
EXTT4=
EXTT5=
EXTT6=
EXTT7=
EXTT8=
EXTT9=
EXTT10=
PLAYORDER=
